<svg width="62" height="62" viewBox="0 0 62 62" fill="none" xmlns="http://www.w3.org/2000/svg">
<g filter="url(#filter0_d_24_190)">
<g filter="url(#filter1_d_24_190)">
<ellipse cx="31.2147" cy="27.0526" rx="26.3768" ry="26.3477" fill="#6CC51D"/>
</g>
<g clip-path="url(#clip0_24_190)">
<path d="M14.2153 22.5994C14.2153 22.1192 14.558 21.874 15.2437 21.862L22.2547 21.7593L25.5288 27.76C25.6881 28.1493 25.7688 28.4175 25.7688 28.5657C25.7688 28.703 25.6848 28.8381 25.5196 28.9694C25.3542 29.1004 25.1909 29.166 25.0315 29.166C25.0084 29.166 24.8946 29.1093 24.6887 28.9944L23.7972 28.4973L21.8775 31.5492H30.2256V40.0874H22.426C20.986 40.0874 19.8426 39.3624 18.9976 37.9103L14.2151 29.7319C13.9408 29.2519 13.8037 28.681 13.8037 28.0174C13.8037 27.503 13.9175 27.0573 14.1465 26.68L15.7579 24.0397L14.5407 23.3025C14.3229 23.1773 14.2151 22.9423 14.2151 22.5995L14.2153 22.5994ZM15.0209 22.9253L16.4952 23.7995L14.6095 27.0571C14.4381 27.3436 14.3525 27.6975 14.3525 28.12C14.3525 28.5439 14.4834 28.9723 14.7466 29.406L18.9635 36.6756V36.3325C18.9635 35.4755 19.1117 34.8067 19.409 34.3269L23.5575 27.76L24.7918 28.36C24.9058 28.4751 24.9854 28.5316 25.0315 28.5316C25.1003 28.5093 25.1346 28.4751 25.1346 28.4287C25.1346 28.4175 25.066 28.2804 24.9289 28.0173L21.9803 22.3247L15.021 22.3933C14.9061 22.3933 14.8497 22.4621 14.8497 22.599C14.8497 22.7361 14.9061 22.8452 15.021 22.925L15.0209 22.9253ZM39.7394 15.2954L40.8365 14.6953C41.0422 14.5812 41.2016 14.5239 41.3165 14.5239C41.5222 14.5239 41.728 14.6076 41.9336 14.773C42.1393 14.9384 42.242 15.1239 42.242 15.3296C42.242 15.4446 42.1676 15.6786 42.0193 16.0327L38.2311 22.0681L31.4599 21.4851C30.7741 21.4165 30.4313 21.228 30.4313 20.9193C30.4313 20.6572 30.5515 20.4686 30.7914 20.3534L31.7342 19.7193L30.0887 16.3244L25.8031 23.3713L18.5348 18.982L22.6145 12.2785C23.3457 11.0783 24.3855 10.5074 25.7345 10.5638L35.6765 10.9754C36.453 11.0099 37.0358 11.1419 37.4252 11.3698C37.7791 11.5876 38.0936 11.9697 38.3679 12.5185L39.7391 15.2961L39.7394 15.2954ZM25.5974 22.5994L29.8142 15.7244L28.5116 13.1184C27.8822 11.8618 26.8658 11.2324 25.4602 11.2324C24.4196 11.2324 23.5514 11.8043 22.8547 12.9469L19.2721 18.8108L25.5974 22.5998V22.5994ZM22.7176 39.6247H29.6255V32.1836H21.4488L19.906 34.6525C19.6541 35.0527 19.5291 35.659 19.5291 36.4699C19.5291 38.5736 20.5917 39.6244 22.7174 39.6244L22.7176 39.6247ZM31.597 21.0221L37.9223 21.5193C40.4251 17.5758 41.6764 15.5356 41.6764 15.3983C41.6764 15.2158 41.5787 15.124 41.385 15.124C41.2477 15.124 41.1451 15.1362 41.0767 15.1583L39.4993 15.9641L37.8537 12.7065C37.4645 11.9522 36.7739 11.553 35.7796 11.5064L27.517 11.1463C28.1221 11.467 28.5911 11.9754 28.9227 12.6724L32.4368 19.925L31.2541 20.6277C31.128 20.6963 31.0654 20.7599 31.0654 20.8163C31.0654 20.8396 31.2418 20.9082 31.5968 21.0223L31.597 21.0221ZM36.0536 31.275H39.7393L35.3511 24.2455L42.5505 19.7195L46.6643 26.2858C47.0761 26.9607 47.2817 27.618 47.2817 28.2576C47.2817 28.6691 47.0246 29.372 46.5103 30.3666L42.019 39.0421C41.5047 40.0486 40.7104 40.5509 39.6362 40.5509H36.5509V41.9568C36.5509 42.4713 36.2938 42.7284 35.7795 42.7284C35.5396 42.7284 35.2825 42.5175 35.008 42.094L31.0997 36.1959L34.5452 30.2635C34.7852 29.841 35.0765 29.6293 35.4194 29.6293C35.8421 29.6293 36.0536 29.7895 36.0536 30.1093V31.2752V31.275ZM36.0195 39.9157H39.7393C40.5046 39.9157 41.1157 39.4825 41.5735 38.6128L45.5333 31.1031C44.7558 31.5955 44.0185 31.8406 43.322 31.8406H35.4539V30.3662C35.4539 30.2409 35.4195 30.1775 35.3511 30.1775C35.2935 30.2347 35.2019 30.3315 35.0766 30.4689L31.8027 36.161L35.6767 42.0249C35.7109 42.0934 35.7565 42.1275 35.8138 42.1275C35.951 42.1275 36.0195 42.0419 36.0195 41.8704V39.9157ZM40.3736 31.275H43.322C44.0418 31.275 44.7448 31.0237 45.4302 30.5205C46.2533 29.9266 46.6645 29.1833 46.6645 28.2917C46.6645 27.7087 46.453 27.0743 46.0304 26.3886L42.3793 20.4563L36.0883 24.3996L40.3736 31.2747" fill="white"/>
</g>
</g>
<defs>
<filter id="filter0_d_24_190" x="0.837891" y="0.704956" width="60.7537" height="60.6953" filterUnits="userSpaceOnUse" color-interpolation-filters="sRGB">
<feFlood flood-opacity="0" result="BackgroundImageFix"/>
<feColorMatrix in="SourceAlpha" type="matrix" values="0 0 0 0 0 0 0 0 0 0 0 0 0 0 0 0 0 0 127 0" result="hardAlpha"/>
<feOffset dy="4"/>
<feGaussianBlur stdDeviation="2"/>
<feComposite in2="hardAlpha" operator="out"/>
<feColorMatrix type="matrix" values="0 0 0 0 0 0 0 0 0 0 0 0 0 0 0 0 0 0 0.25 0"/>
<feBlend mode="normal" in2="BackgroundImageFix" result="effect1_dropShadow_24_190"/>
<feBlend mode="normal" in="SourceGraphic" in2="effect1_dropShadow_24_190" result="shape"/>
</filter>
<filter id="filter1_d_24_190" x="0.837891" y="0.704956" width="60.7537" height="60.6953" filterUnits="userSpaceOnUse" color-interpolation-filters="sRGB">
<feFlood flood-opacity="0" result="BackgroundImageFix"/>
<feColorMatrix in="SourceAlpha" type="matrix" values="0 0 0 0 0 0 0 0 0 0 0 0 0 0 0 0 0 0 127 0" result="hardAlpha"/>
<feOffset dy="4"/>
<feGaussianBlur stdDeviation="2"/>
<feComposite in2="hardAlpha" operator="out"/>
<feColorMatrix type="matrix" values="0 0 0 0 0.423529 0 0 0 0 0.772549 0 0 0 0 0.113725 0 0 0 0.26 0"/>
<feBlend mode="normal" in2="BackgroundImageFix" result="effect1_dropShadow_24_190"/>
<feBlend mode="normal" in="SourceGraphic" in2="effect1_dropShadow_24_190" result="shape"/>
</filter>
<clipPath id="clip0_24_190">
<rect width="33.5581" height="33.5581" fill="white" transform="translate(13.7675 9.84271)"/>
</clipPath>
</defs>
</svg>
